Coordinates
version=1
nRows=16
nColumns=40
inDegrees=yes

Units are S.I. units (second, meters, Newtons, ...)
If the header above contains a line with 'inDegrees', this indicates whether rotational values are in degrees (yes) or radians (no).

endheader
time	pelvis_tilt	pelvis_list	pelvis_rotation	pelvis_tx	pelvis_ty	pelvis_tz	hip_flexion_r	hip_adduction_r	hip_rotation_r	knee_angle_r	knee_angle_r_beta	ankle_angle_r	subtalar_angle_r	mtp_angle_r	hip_flexion_l	hip_adduction_l	hip_rotation_l	knee_angle_l	knee_angle_l_beta	ankle_angle_l	subtalar_angle_l	mtp_angle_l	lumbar_extension	lumbar_bending	lumbar_rotation	arm_flex_r	arm_add_r	arm_rot_r	elbow_flex_r	pro_sup_r	wrist_flex_r	wrist_dev_r	arm_flex_l	arm_add_l	arm_rot_l	elbow_flex_l	pro_sup_l	wrist_flex_l	wrist_dev_l
      4.59500000	    -21.67690300	      1.44813353	     -4.15320453	     -0.47382400	      0.60658457	     -0.81353622	     89.20823050	    -19.34543758	      7.59457871	    108.49974511	      1.89367779	     39.21101349	      0.00000000	      0.00000000	     87.22101357	    -28.96414696	      5.97545424	    108.17996833	      1.88809663	     39.18799731	      0.00000000	      0.00000000	    -26.13151797	     -7.63340847	      8.63912030	    -32.60861547	    -58.10507430	     27.08189712	    116.72369408	     88.09526805	      0.00000000	      0.00000000	    -10.96046047	    -66.60158735	     58.33418605	    110.04933050	     88.31638325	      0.00000000	      0.00000000
      4.60000000	    -22.00859541	      1.58831469	     -4.10447432	     -0.47521205	      0.60045349	     -0.81406024	     90.38638364	    -19.46215997	      8.06846485	    109.28112725	      1.90731548	     39.19030698	      0.00000000	      0.00000000	     88.30898908	    -28.84049850	      6.34000563	    109.00597505	      1.90251317	     39.22193303	      0.00000000	      0.00000000	    -26.12201496	     -7.57519185	      8.36389249	    -32.36044840	    -58.41038994	     27.43247758	    116.96722073	     88.11500139	      0.00000000	      0.00000000	    -10.48777916	    -66.46925089	     59.04749028	    109.88061633	     88.32914994	      0.00000000	      0.00000000
      4.60500000	    -21.75385643	      1.63599264	     -4.40212127	     -0.47697070	      0.59602804	     -0.81412722	     90.87738461	    -19.11154883	      8.49505264	    109.92583088	      1.91856768	     39.09991412	      0.00000000	      0.00000000	     88.68886985	    -29.09268432	      6.64853543	    109.73322887	      1.91520614	     39.32194669	      0.00000000	      0.00000000	    -26.87860410	     -7.61970105	      8.36403260	    -31.96671592	    -58.75449917	     27.51649633	    117.11908790	     88.11975230	      0.00000000	      0.00000000	    -10.06178753	    -66.33537633	     59.40191822	    109.76687270	     88.32925479	      0.00000000	      0.00000000
      4.61000000	    -22.09650898	      2.11697691	     -4.09791041	     -0.47742626	      0.58927373	     -0.81474993	     92.27223403	    -19.55294098	      9.38651040	    110.90580023	      1.93567137	     39.03959315	      0.00000000	      0.00000000	     89.56655585	    -28.76452434	      6.53853901	    110.59762725	      1.93029274	     39.39479005	      0.00000000	      0.00000000	    -26.65091346	     -7.87084296	     10.00740779	    -36.87609772	    -56.89024878	     23.11264671	    117.27955117	     88.14994744	      0.00000000	      0.00000000	      0.39765352	    -66.75784333	     70.38193822	    109.56037630	     88.29554324	      0.00000000	      0.00000000
      4.61500000	    -21.90580707	      2.12123251	     -4.16725974	     -0.47837520	      0.58431929	     -0.81462526	     92.71198158	    -19.45495139	      9.72492227	    111.65149532	      1.94868621	     39.17174408	      0.00000000	      0.00000000	     90.05273806	    -28.88328387	      6.94542926	    111.36348147	      1.94365942	     39.56335992	      0.00000000	      0.00000000	    -27.25907199	     -7.83471600	      9.83602123	    -36.70033139	    -57.02261014	     23.09272251	    117.40497081	     88.15330559	      0.00000000	      0.00000000	      0.46432805	    -66.71512344	     70.47753207	    109.50640002	     88.30386273	      0.00000000	      0.00000000
      4.62000000	    -21.78844752	      2.12247840	     -4.20816653	     -0.47917310	      0.57940247	     -0.81420427	     93.21500667	    -19.34621628	     10.05174787	    112.40495506	      1.96183656	     39.29476483	      0.00000000	      0.00000000	     90.58972469	    -29.00121068	      7.37990295	    112.07139460	      1.95601483	     39.66847587	      0.00000000	      0.00000000	    -27.73173945	     -7.80117535	      9.64783798	    -36.52234113	    -57.17281473	     23.17235623	    117.56864382	     88.16395940	      0.00000000	      0.00000000	      0.44104100	    -66.76425910	     70.74381054	    109.36524944	     88.31411289	      0.00000000	      0.00000000
      4.62500000	    -21.97706574	      2.23118239	     -4.04730290	     -0.48034160	      0.57372943	     -0.81456208	     94.17718931	    -19.49295112	     10.52887351	    113.13782425	      1.97462754	     39.42569736	      0.00000000	      0.00000000	     91.54076354	    -28.79056820	      7.78402057	    112.81682405	      1.96902503	     39.48011841	      0.00000000	      0.00000000	    -27.79013609	     -7.72731729	      9.19168822	    -36.12697325	    -57.70953545	     23.82825439	    117.95221318	     88.19028280	      0.00000000	      0.00000000	      0.79126978	    -66.90480914	     71.32552371	    109.67969712	     88.32132104	      0.00000000	      0.00000000
      4.63000000	    -21.80188446	      2.27479439	     -4.05749280	     -0.48090551	      0.56917620	     -0.81457750	     94.58892801	    -19.46030258	     10.91859031	    113.84171930	      1.98691283	     39.47935104	      0.00000000	      0.00000000	     91.94454380	    -28.85140168	      8.10199893	    113.51644512	      1.98123572	     39.61730254	      0.00000000	      0.00000000	    -28.27350072	     -7.70101489	      8.99347764	    -35.90731188	    -57.79417704	     23.83866873	    117.92641110	     88.18565688	      0.00000000	      0.00000000	      0.90914757	    -66.84602644	     71.43199716	    109.58774981	     88.32334923	      0.00000000	      0.00000000
      4.63500000	    -22.04987890	      2.90804075	     -3.90006679	     -0.48181029	      0.56369096	     -0.81514165	     95.91823846	    -19.63255450	     12.05337109	    114.57096447	      1.99964056	     39.17633439	      0.00000000	      0.00000000	     92.47311226	    -28.56529869	      7.78368095	    114.17631429	      1.99275261	     39.60912666	      0.00000000	      0.00000000	    -28.12669218	     -8.15868100	      8.27940388	    -34.80157934	    -58.29857932	     25.32046867	    117.94950856	     88.18385603	      0.00000000	      0.00000000	      1.75333369	    -67.09687972	     73.00476548	    109.72882855	     88.30576971	      0.00000000	      0.00000000
      4.64000000	    -22.11089585	      3.02694219	     -3.73168582	     -0.48214209	      0.55896664	     -0.81539686	     96.60948697	    -19.79766332	     12.53049307	    115.24932861	      2.01148024	     39.24987942	      0.00000000	      0.00000000	     93.05982784	    -28.40845593	      8.03771064	    114.80908797	      2.00379660	     39.66800073	      0.00000000	      0.00000000	    -28.29241775	     -8.11983782	      7.90016743	    -34.61794947	    -58.41317971	     25.60698437	    118.02221743	     88.22133423	      0.00000000	      0.00000000	      1.88204610	    -67.13714729	     73.49595121	    109.61239394	     88.30606722	      0.00000000	      0.00000000
      4.64500000	    -21.94403608	      3.05018056	     -3.76963249	     -0.48250807	      0.55460274	     -0.81523537	     97.01146302	    -19.73007249	     12.88367255	    115.90940498	      2.02300075	     39.37431020	      0.00000000	      0.00000000	     93.45746501	    -28.52939440	      8.39066408	    115.47837794	      2.01547791	     39.79363499	      0.00000000	      0.00000000	    -28.69684704	     -8.10346464	      7.77152184	    -34.48371971	    -58.55065805	     25.58556493	    118.04628360	     88.20845270	      0.00000000	      0.00000000	      1.95054890	    -67.15743966	     73.60320088	    109.65204200	     88.31308433	      0.00000000	      0.00000000
      4.65000000	    -21.85003666	      3.08677376	     -3.80332408	     -0.48235975	      0.55036064	     -0.81509261	     97.40090323	    -19.71705783	     13.17185305	    116.52978075	      2.03382835	     39.49538194	      0.00000000	      0.00000000	     93.85228302	    -28.68227639	      8.66497871	    116.10882203	      2.02648123	     39.91158356	      0.00000000	      0.00000000	    -28.98583169	     -8.09685136	      7.65730044	    -34.40029833	    -58.58543540	     25.63341843	    118.03434622	     88.21146546	      0.00000000	      0.00000000	      2.01707566	    -67.09810944	     73.67619725	    109.65592627	     88.31782373	      0.00000000	      0.00000000
      4.65500000	    -21.51928469	      3.58202030	     -3.94914460	     -0.48296182	      0.54679860	     -0.81609486	     97.89530753	    -19.67983840	     14.09843716	    117.01351258	      2.04227106	     39.30650072	      0.00000000	      0.00000000	     93.68353947	    -28.67602712	      8.34572545	    116.73660901	      2.03743818	     39.92717660	      0.00000000	      0.00000000	    -29.52368875	     -8.45557872	      7.31758960	    -34.05639727	    -59.14858985	     26.07303692	    118.35972591	     88.24732855	      0.00000000	      0.00000000	      2.38564982	    -67.11093182	     74.26053817	    109.87146632	     88.32112270	      0.00000000	      0.00000000
      4.66000000	    -21.41007416	      3.65464236	     -3.83563024	     -0.48210856	      0.54235014	     -0.81586336	     98.32000389	    -19.84678334	     14.47350245	    117.78705877	      2.05577199	     39.49139258	      0.00000000	      0.00000000	     94.00512577	    -28.76425790	      8.58453128	    117.41556467	      2.04928820	     40.08833487	      0.00000000	      0.00000000	    -29.70542707	     -8.46209722	      7.15985111	    -34.02559504	    -59.04573433	     26.15940214	    118.22727896	     88.24003996	      0.00000000	      0.00000000	      2.38827980	    -67.12664192	     74.39496816	    109.81063188	     88.32376432	      0.00000000	      0.00000000
      4.66500000	    -21.83448859	      4.27765508	     -3.41557384	     -0.48247111	      0.53714052	     -0.81685087	     99.66760424	    -20.35911968	     15.52428992	    118.38667477	      2.06623727	     39.67103314	      0.00000000	      0.00000000	     94.64728576	    -28.21671278	      8.20122207	    117.95715743	      2.05874077	     40.11783376	      0.00000000	      0.00000000	    -29.31160622	     -8.77412230	      6.43528863	    -33.86309557	    -59.07720068	     26.56711389	    118.20512610	     88.22159494	      0.00000000	      0.00000000	      2.61662110	    -67.30225265	     74.98919517	    109.96530491	     88.30941866	      0.00000000	      0.00000000
      4.67000000	    -21.64486813	      4.33451032	     -3.50940957	     -0.48260367	      0.53345093	     -0.81663225	     99.97106450	    -20.23986954	     15.87238145	    118.93856724	      2.07586961	     39.70888575	      0.00000000	      0.00000000	     94.88278815	    -28.38334598	      8.44837184	    118.50767982	      2.06834920	     40.23094006	      0.00000000	      0.00000000	    -29.63162843	     -8.80598837	      6.42712484	    -33.81221270	    -59.15270869	     26.59262130	    118.20409397	     88.22202170	      0.00000000	      0.00000000	      2.69933736	    -67.27971419	     75.01321594	    109.94931930	     88.31004317	      0.00000000	      0.00000000
